<svg xmlns="http://www.w3.org/2000/svg" xmlns:xlink="http://www.w3.org/1999/xlink" width="160" height="160" viewBox="0 0 160 160">
  <defs>
    <clipPath id="clip-path">
      <rect id="Rectangle_34" data-name="Rectangle 34" width="160" height="160" transform="translate(230 1410)"/>
    </clipPath>
  </defs>
  <g id="Mask_Group_1" data-name="Mask Group 1" transform="translate(-230 -1410)" clip-path="url(#clip-path)">
    <g id="rev" transform="translate(230 1455.152)">
      <path id="Path_54" data-name="Path 54" d="M120.959,6.912C104.929,2.626,85.083.093,63.593.093c-5.988,0-11.848.2-17.535.573,28.233.766,53.07,5.913,69.3,13.563q2.711-3.726,5.6-7.316M160,34.846c0,19.2-43.163,34.757-96.407,34.757q-3.694,0-7.318-.1c44.87-2.974,78.868-17.143,78.868-34.18a15.52,15.52,0,0,0-3.926-9.848c2.728-4.291,5.3-8.49,7.68-12.327,13.2,5.947,21.1,13.49,21.1,21.7" fill="#c5d1cf" fill-rule="evenodd"/>
      <path id="Path_55" data-name="Path 55" d="M20.893,15.977c.3-1.932.52-2.452,3.558-2.452,2.149,0,2.813,1.487,2.813,3.793,0,6.241-2.591,8.769-6,8.769-1.335,0-1.7-.445-1.7-1.414a7.949,7.949,0,0,1,.148-1.115l1.184-7.582Zm-3.187,21.78c.226-1.188.522-1.635,1.706-1.635,1.335,0,1.631.445,2.372,3.269l3.111,11.967c.3,1.335,1.706,2.231,5.555,2.231,2.966,0,10.226-.671,10.226-5.278a8.759,8.759,0,0,0-.369-2.008L35.713,33.891a8.017,8.017,0,0,1-.595-2.751c0-1.264.742-2.081,2.3-3.2a13.97,13.97,0,0,0,6.225-12.19C43.64,5.646,36.9,2.747,27.786,2.747H18.9C9.93,2.747,7.186,4.829,6.666,8.4L.148,49.947A8.451,8.451,0,0,0,0,51.136c0,2.08,3.187,2.454,7.261,2.454,4.3,0,8-.447,8.372-2.826l2.074-13.007ZM65.537,22.741c2.147,0,3.185.892,3.185,2.9,0,2.676-.89,4.311-3.408,4.311H62.35c-1.036,0-1.631-.3-1.631-1.113a8.277,8.277,0,0,1,1.113-4.165,4.006,4.006,0,0,1,3.705-1.932Zm4.3,14.643c9.706-.744,12.446-3.864,12.446-12.934,0-7.879-5.333-11.668-16.15-11.668-6.67,0-11.782,1.635-15.413,5.573-4.889,5.278-6.371,15.163-6.371,21.556,0,9.665,6.148,14.122,18.226,14.122,6.52,0,10.669-.742,12.448-2,1.481-1.04,2.813-3.2,2.813-7.507,0-2.678-2-3.123-3.331-2.826a43.485,43.485,0,0,1-8.817.892c-4.594,0-6.15-.744-6.15-2.454a2.477,2.477,0,0,1,.3-1.487,2.362,2.362,0,0,1,1.781-.668l8.223-.595Zm66.732-25.266c-3.971,6.154-9.077,14.93-14.707,22.969q-2.278,3.265-4.749,6.389c-9.2,11.561-9.134,12.384-21.611,12.482-14.994.114-10.329-9.25-9.777-17.074.369-5.231,2.076-10.475,2.6-14.161.559-3.914,1.966-8.853,8.744-8.335,1.905.144,7.681,2.3,6.928,5.794-1.483,6.916-2.858,19.682-3.006,19.916,0,0,15.279-23.942,22.026-30.709,3.219-3.23,20.761-8.449,13.552,2.73Z" fill="#ee3524" fill-rule="evenodd"/>
    </g>
  </g>
</svg>
