<svg xmlns="http://www.w3.org/2000/svg" xmlns:xlink="http://www.w3.org/1999/xlink" width="40" height="40" viewBox="0 0 40 40">
  <defs>
    <clipPath id="clip-path">
      <rect id="Rectangle_6" data-name="Rectangle 6" width="40" height="40" transform="translate(1010 2816)" fill="#3ebcfe"/>
    </clipPath>
  </defs>
  <g id="Mask_Group_3" data-name="Mask Group 3" transform="translate(-1010 -2816)" clip-path="url(#clip-path)">
    <g id="proz" transform="translate(1009.749 2856.269)">
      <path id="Path_81" data-name="Path 81" d="M17.3-40A20.059,20.059,0,0,0,.992-25.562,20.006,20.006,0,0,0,8.386-4.213,19.445,19.445,0,0,0,17.723-.466,19.826,19.826,0,0,0,36.3-8.386a19.445,19.445,0,0,0,3.747-9.338A19.826,19.826,0,0,0,32.124-36.3,19.668,19.668,0,0,0,23.091-40,15.911,15.911,0,0,0,17.3-40ZM30.463-27.061a5.412,5.412,0,0,1,3.16,4.76,4.563,4.563,0,0,1-2.674,4.557l-1.053.527H13.166v4.051H11.95v-4.051H6.887v-1.013H11.95v-4.416a38.056,38.056,0,0,1,.142-4.557c.061-.081,4.071-.142,8.912-.142C27.992-27.344,29.917-27.283,30.463-27.061Z" fill="#3ebcfe"/>
      <path id="Path_82" data-name="Path 82" d="M13.166-22.382v3.95h8.244c7.98,0,8.264-.02,9.135-.425a3.961,3.961,0,0,0,.284-6.765l-.891-.608-8.386-.061-8.386-.061Z" fill="#3ebcfe"/>
    </g>
  </g>
</svg>
