<svg xmlns="http://www.w3.org/2000/svg" width="159.739" height="130.006" viewBox="0 0 159.739 130.006">
  <g id="text" transform="translate(0 -50.668)">
    <path id="Path_37" data-name="Path 37" d="M329.978,108.1a95.575,95.575,0,0,1-19.936-4,36.1,36.1,0,0,0-25.307,1.212,2.231,2.231,0,0,0,1.761,4.1,31.756,31.756,0,0,1,22.259-1.04,99.974,99.974,0,0,0,20.881,4.178c.058,0,.116.007.173.007a2.229,2.229,0,0,0,.168-4.452Z" transform="translate(-191.604 -36.336)" fill="#fff"/>
    <path id="Path_38" data-name="Path 38" d="M329.978,139.971a95.554,95.554,0,0,1-19.936-4,36.1,36.1,0,0,0-25.307,1.212,2.231,2.231,0,0,0,1.761,4.1,31.756,31.756,0,0,1,22.259-1.04,99.952,99.952,0,0,0,20.881,4.178c.058,0,.116.007.173.007a2.229,2.229,0,0,0,.168-4.452Z" transform="translate(-191.604 -56.976)" fill="#fff"/>
    <path id="Path_39" data-name="Path 39" d="M329.978,299.347a95.552,95.552,0,0,1-19.936-4,36.1,36.1,0,0,0-25.307,1.213,2.231,2.231,0,0,0,1.761,4.1,31.761,31.761,0,0,1,22.259-1.04,99.968,99.968,0,0,0,20.881,4.179c.058,0,.116.007.173.007a2.229,2.229,0,0,0,.168-4.452Z" transform="translate(-191.604 -165.62)" fill="#fff"/>
    <path id="Path_40" data-name="Path 40" d="M329.978,331.223a95.58,95.58,0,0,1-19.936-4,36.1,36.1,0,0,0-25.307,1.212,2.231,2.231,0,1,0,1.761,4.1,31.756,31.756,0,0,1,22.259-1.04,99.977,99.977,0,0,0,20.881,4.178c.058,0,.116.007.173.007a2.229,2.229,0,0,0,.168-4.452Z" transform="translate(-191.604 -187.349)" fill="#fff"/>
    <path id="Path_41" data-name="Path 41" d="M329.978,171.846a95.554,95.554,0,0,1-19.936-4,36.1,36.1,0,0,0-25.307,1.213,2.231,2.231,0,0,0,1.761,4.1,31.759,31.759,0,0,1,22.259-1.04,99.965,99.965,0,0,0,20.881,4.179c.058,0,.116.007.173.007a2.229,2.229,0,0,0,.168-4.452Z" transform="translate(-191.604 -78.705)" fill="#fff"/>
    <path id="Path_42" data-name="Path 42" d="M329.978,235.6a95.532,95.532,0,0,1-19.936-4,36.1,36.1,0,0,0-25.307,1.212,2.231,2.231,0,0,0,1.761,4.1,31.759,31.759,0,0,1,22.259-1.04,99.977,99.977,0,0,0,20.881,4.179c.058,0,.116.006.173.006a2.23,2.23,0,0,0,.168-4.453Z" transform="translate(-191.604 -122.162)" fill="#fff"/>
    <path id="Path_43" data-name="Path 43" d="M329.978,203.722a95.577,95.577,0,0,1-19.936-4,36.1,36.1,0,0,0-25.307,1.212,2.231,2.231,0,0,0,1.761,4.1,31.758,31.758,0,0,1,22.259-1.04,99.973,99.973,0,0,0,20.881,4.178c.058,0,.116.007.173.007a2.229,2.229,0,0,0,.168-4.452Z" transform="translate(-191.604 -100.434)" fill="#fff"/>
    <path id="Path_44" data-name="Path 44" d="M329.978,267.472a95.525,95.525,0,0,1-19.936-4,36.1,36.1,0,0,0-25.307,1.213,2.231,2.231,0,0,0,1.761,4.1,31.761,31.761,0,0,1,22.259-1.04,99.948,99.948,0,0,0,20.881,4.179c.058,0,.116.006.173.006a2.23,2.23,0,0,0,.168-4.453Z" transform="translate(-191.604 -143.891)" fill="#fff"/>
    <path id="Path_45" data-name="Path 45" d="M67.175,112.548a1.437,1.437,0,0,0,.173-.007,99.95,99.95,0,0,0,20.881-4.178,31.756,31.756,0,0,1,22.259,1.04,2.231,2.231,0,1,0,1.761-4.1,36.1,36.1,0,0,0-25.307-1.212,95.58,95.58,0,0,1-19.936,4,2.229,2.229,0,0,0,.168,4.452Z" transform="translate(-45.642 -36.336)" fill="#fff"/>
    <path id="Path_46" data-name="Path 46" d="M67.175,144.423a1.437,1.437,0,0,0,.173-.007,99.931,99.931,0,0,0,20.881-4.178,31.754,31.754,0,0,1,22.259,1.04,2.231,2.231,0,1,0,1.761-4.1,36.1,36.1,0,0,0-25.307-1.212,95.556,95.556,0,0,1-19.936,4,2.229,2.229,0,0,0,.168,4.452Z" transform="translate(-45.642 -56.976)" fill="#fff"/>
    <path id="Path_47" data-name="Path 47" d="M67.175,303.8a1.441,1.441,0,0,0,.173-.007,99.94,99.94,0,0,0,20.881-4.179,31.754,31.754,0,0,1,22.259,1.04,2.231,2.231,0,1,0,1.761-4.1,36.1,36.1,0,0,0-25.307-1.212,95.555,95.555,0,0,1-19.936,4,2.229,2.229,0,0,0,.168,4.452Z" transform="translate(-45.642 -165.62)" fill="#fff"/>
    <path id="Path_48" data-name="Path 48" d="M67.175,335.675a1.441,1.441,0,0,0,.173-.007A99.948,99.948,0,0,0,88.23,331.49a31.754,31.754,0,0,1,22.259,1.04,2.231,2.231,0,0,0,1.761-4.1,36.1,36.1,0,0,0-25.307-1.212,95.578,95.578,0,0,1-19.936,4,2.229,2.229,0,0,0,.168,4.452Z" transform="translate(-45.642 -187.349)" fill="#fff"/>
    <path id="Path_49" data-name="Path 49" d="M67.175,176.3a1.437,1.437,0,0,0,.173-.007,99.943,99.943,0,0,0,20.881-4.179,31.756,31.756,0,0,1,22.259,1.04,2.231,2.231,0,1,0,1.761-4.1,36.1,36.1,0,0,0-25.307-1.213,95.555,95.555,0,0,1-19.936,4,2.229,2.229,0,0,0,.168,4.452Z" transform="translate(-45.642 -78.705)" fill="#fff"/>
    <path id="Path_50" data-name="Path 50" d="M67.175,240.049a1.677,1.677,0,0,0,.173-.006,99.951,99.951,0,0,0,20.881-4.179,31.754,31.754,0,0,1,22.259,1.04,2.231,2.231,0,0,0,1.761-4.1,36.1,36.1,0,0,0-25.306-1.2,95.536,95.536,0,0,1-19.936,4,2.23,2.23,0,0,0,.168,4.453Z" transform="translate(-45.642 -122.163)" fill="#fff"/>
    <path id="Path_51" data-name="Path 51" d="M67.175,208.174a1.437,1.437,0,0,0,.173-.007,99.948,99.948,0,0,0,20.881-4.178,31.756,31.756,0,0,1,22.259,1.04,2.231,2.231,0,1,0,1.761-4.1,36.1,36.1,0,0,0-25.307-1.212,95.578,95.578,0,0,1-19.936,4,2.229,2.229,0,0,0,.168,4.452Z" transform="translate(-45.642 -100.433)" fill="#fff"/>
    <path id="Path_52" data-name="Path 52" d="M67.175,271.924a1.673,1.673,0,0,0,.173-.006A99.928,99.928,0,0,0,88.23,267.74a31.754,31.754,0,0,1,22.259,1.04,2.231,2.231,0,0,0,1.761-4.1,36.1,36.1,0,0,0-25.307-1.213,95.525,95.525,0,0,1-19.936,4,2.23,2.23,0,0,0,.168,4.453Z" transform="translate(-45.642 -143.891)" fill="#fff"/>
    <path id="Path_53" data-name="Path 53" d="M154.025,64.169h-3.663V62a5.168,5.168,0,0,0-5.542-5.2c-3.453.28-11.013.3-22.857-2.75a2.336,2.336,0,0,0-2.843,1.718,2.376,2.376,0,0,0,1.693,2.885c11.873,3.055,19.812,3.253,24.382,2.88a.456.456,0,0,1,.487.463v95.81c-8.864.97-20.7-1.6-29.29-4.229-19.175-5.864-31.572,4.21-34.182,5.646v-94.9a33.183,33.183,0,0,1,27.89-8.449,2.343,2.343,0,0,0,2.682-1.966,2.37,2.37,0,0,0-1.938-2.721,37.5,37.5,0,0,0-30.98,8.883,37.771,37.771,0,0,0-36.516-7.583c-14.908,4.559-24.211,4.661-28.428,4.32A5.168,5.168,0,0,0,9.379,62v2.166H5.715A5.763,5.763,0,0,0,0,69.968v96.281a5.764,5.764,0,0,0,5.715,5.8H66.344a2.3,2.3,0,0,1,2.1,1.3,12.575,12.575,0,0,0,22.853,0,2.306,2.306,0,0,1,2.1-1.3h60.628a5.763,5.763,0,0,0,5.714-5.8V121.222a2.34,2.34,0,0,0-4.68,0v45.026a1.043,1.043,0,0,1-1.035,1.05H93.4a7,7,0,0,0-6.331,4.015,7.918,7.918,0,0,1-14.393,0,7,7,0,0,0-6.331-4.016H5.715a1.044,1.044,0,0,1-1.035-1.05V69.968a1.044,1.044,0,0,1,1.035-1.05H9.379V159.84a2.368,2.368,0,0,0,1.741,2.3c.445.12,11.162,2.851,33.579-4a33.176,33.176,0,0,1,29.619,4.66,9.548,9.548,0,0,0,11.1,0,33.175,33.175,0,0,1,29.619-4.66c22.417,6.855,33.134,4.124,33.579,4a2.368,2.368,0,0,0,1.741-2.3V68.917h3.663a1.044,1.044,0,0,1,1.035,1.05v40.174a2.34,2.34,0,0,0,4.68,0V69.968a5.764,5.764,0,0,0-5.715-5.8ZM14.058,62a.455.455,0,0,1,.487-.463c4.546.371,14.509.277,30.153-4.506,12.669-3.873,24.773-.362,32.831,7.295v94.9a38.176,38.176,0,0,0-34.182-5.645c-1.262.386-2.649.787-3.933,1.135l-.046.013c-7.535,2.039-17.558,3.93-25.311,3.083V62Z" fill="#fff"/>
  </g>
</svg>
