<svg xmlns="http://www.w3.org/2000/svg" width="152.736" height="130" viewBox="0 0 152.736 130">
  <g id="video" transform="translate(0 -38.105)">
    <path id="Path_33" data-name="Path 33" d="M124.324,127.457a4.412,4.412,0,0,0-4.63,4.144v46.059a4.412,4.412,0,0,0,4.63,4.144h76.258a4.412,4.412,0,0,0,4.63-4.144V131.6a4.412,4.412,0,0,0-4.63-4.144Zm70.113,24.209h6.069v5.927h-6.069Zm6.069-4.212h-6.069v-5.927h6.069Zm-6.069,14.351h6.069v5.927h-6.069Zm6.069-24.49h-6.069v-5.646h6.069ZM124.4,151.666h6.069v5.927H124.4Zm6.069-4.212H124.4v-5.927h6.069ZM124.4,161.805h6.069v5.927H124.4Zm6.069-30.136v5.646H124.4v-5.646ZM124.4,171.945h6.069v5.646H124.4Zm10.775-40.275h54.556v45.922H135.175Zm59.262,45.922v-5.646h6.069v5.646Z" transform="translate(-86.085 -61.444)" fill="#fff"/>
    <path id="Path_34" data-name="Path 34" d="M238.323,191.373l-12.13-7.465a4.025,4.025,0,0,0-6.13,3.425v14.93a4.026,4.026,0,0,0,6.13,3.425l12.13-7.465A4.021,4.021,0,0,0,238.323,191.373Zm-14.048,10.55V187.673l11.578,7.125Z" transform="translate(-153.782 -101.296)" fill="#fff"/>
    <path id="Path_35" data-name="Path 35" d="M152.736,48.044A9.95,9.95,0,0,0,142.8,38.1H83.144a2.237,2.237,0,0,0,0,4.475H142.8a5.47,5.47,0,0,1,5.464,5.464v91.174a5.47,5.47,0,0,1-5.464,5.464H9.939a5.47,5.47,0,0,1-5.464-5.464V48.044A5.47,5.47,0,0,1,9.939,42.58H72.7a2.237,2.237,0,1,0,0-4.475H9.939A9.95,9.95,0,0,0,0,48.044v91.174a9.95,9.95,0,0,0,9.939,9.939H35.313v5H27.419a4.524,4.524,0,0,0-4.518,4.518v4.911a4.524,4.524,0,0,0,4.518,4.519h97.9a4.524,4.524,0,0,0,4.518-4.519v-4.911a4.524,4.524,0,0,0-4.518-4.518h-7.895v-5H142.8a9.95,9.95,0,0,0,9.939-9.939V48.044ZM125.361,158.675v4.911a.044.044,0,0,1-.044.044h-97.9a.044.044,0,0,1-.044-.044v-4.911a.043.043,0,0,1,.044-.044h97.9A.044.044,0,0,1,125.361,158.675Zm-12.413-4.518H39.788v-5h73.159v5Z" transform="translate(0)" fill="#fff"/>
    <path id="Path_36" data-name="Path 36" d="M164.4,110.4a2.185,2.185,0,0,0,2.256-2.106V73.736a4.024,4.024,0,0,0-4.15-3.874H35.907a4.024,4.024,0,0,0-4.15,3.874v78.942a4.024,4.024,0,0,0,4.15,3.874h126.6a4.024,4.024,0,0,0,4.15-3.874V118.121a2.261,2.261,0,0,0-4.512,0V152.34H36.269V74.074H162.147v34.22A2.185,2.185,0,0,0,164.4,110.4Z" transform="translate(-22.84 -22.84)" fill="#fff"/>
  </g>
</svg>
