<svg xmlns="http://www.w3.org/2000/svg" width="127.52" height="53" viewBox="0 0 127.52 53">
  <g id="Logo" transform="translate(-672.48 -19)">
    <text id="Giovany_Almeida" data-name="Giovany
Almeida" transform="translate(729 43)" fill="#40aff3" font-size="16" font-family="Poppins-ExtraBold, Poppins" font-weight="800"><tspan x="0" y="0">Giovany</tspan><tspan x="0" y="16">Almeida</tspan></text>
    <g id="filled_outline" data-name="filled outline" transform="translate(648.003 -37)">
      <path id="Path_68" data-name="Path 68" d="M124.419,69.092,93.082,100.43a22.26,22.26,0,0,1,14.945-36.32q1.1-.109,2.223-.11a22.218,22.218,0,0,1,14.17,5.092Z" transform="translate(-62.453 -6.94)" fill="#40aff3" opacity="0.8"/>
      <path id="Path_69" data-name="Path 69" d="M118.163,61.339a23.173,23.173,0,0,0-12.516-5.22,23.732,23.732,0,0,0-4.656,0,23.321,23.321,0,0,0-15.657,38.05,1.06,1.06,0,0,0,.767.384h.05a1.06,1.06,0,0,0,.749-.31l31.338-31.338a1.06,1.06,0,0,0-.074-1.567ZM99.881,78.264H93.373a31.189,31.189,0,0,1,1.314-7.98,67.3,67.3,0,0,0,7.571.55v5.052Zm-2.12,2.12-3.995,3.995a31.427,31.427,0,0,1-.392-3.995Zm3.836-22.19c.22-.018.44-.033.662-.044V68.715a65.209,65.209,0,0,1-6.873-.478A30.9,30.9,0,0,1,101.6,58.195Zm2.782,12.64q1.524-.024,3.05-.118l-3.05,3.05Zm5.363-2.431c-1.774.177-3.572.281-5.363.311V58.151c.222.011.442.027.663.044a31.018,31.018,0,0,1,5.829,9.081ZM98.376,58.7a32.912,32.912,0,0,0-5.143,9.232,64.919,64.919,0,0,1-6.792-1.44A21.082,21.082,0,0,1,98.376,58.7Zm-13.2,9.643a66.948,66.948,0,0,0,7.388,1.631,33.314,33.314,0,0,0-1.315,8.287h-9.1a21.078,21.078,0,0,1,3.031-9.918ZM86.248,91.9a21.242,21.242,0,0,1-4.1-11.513h9.107a33.479,33.479,0,0,0,.7,5.811Zm26.234-26.235a33.037,33.037,0,0,0-4.223-6.96,21.041,21.041,0,0,1,7.632,3.551Z" transform="translate(-55.521 -0.004)" fill="#428dc5"/>
      <path id="Path_70" data-name="Path 70" d="M185.49,139.23a22.207,22.207,0,0,0-5.092-14.17L149.06,156.4a22.155,22.155,0,0,0,11.946,4.982q1.1.11,2.223.11t2.223-.11c.321-.032.64-.071.957-.117v6.587l9.583-10.381A22.233,22.233,0,0,0,185.49,139.23Z" transform="translate(-115.432 -59.91)" fill="#eaeae8"/>
      <circle id="Ellipse_3" data-name="Ellipse 3" cx="2" cy="2" r="2" transform="translate(58.997 88)" fill="#428dc5"/>
      <path id="Path_73" data-name="Path 73" d="M118.548,62.1a1.06,1.06,0,0,0-.384-.767,23.173,23.173,0,0,0-12.516-5.22c-.762-.076-1.537-.114-2.311-.114H103.3c-.775,0-1.55.039-2.311.114a23.217,23.217,0,0,0-17.162,10.4l-.008.012h0a23.326,23.326,0,0,0,1.513,27.641,1.06,1.06,0,0,0,.767.384h.05a1.06,1.06,0,0,0,.749-.31L118.239,62.9A1.06,1.06,0,0,0,118.548,62.1ZM99.882,78.26H93.374a31.188,31.188,0,0,1,1.314-7.98,67.307,67.307,0,0,0,7.571.55v5.052Zm-17.733,0a21.078,21.078,0,0,1,3.031-9.918,66.948,66.948,0,0,0,7.388,1.631,33.314,33.314,0,0,0-1.315,8.287ZM101.6,58.19c.22-.018.44-.033.662-.044V68.71a65.207,65.207,0,0,1-6.873-.478A30.9,30.9,0,0,1,101.6,58.19ZM97.762,80.38l-3.995,3.995a31.424,31.424,0,0,1-.392-3.995Zm6.617-9.549q1.524-.024,3.05-.118l-3.05,3.05Zm5.363-2.431c-1.774.177-3.572.281-5.363.311V58.146c.222.011.442.027.662.044a31.018,31.018,0,0,1,5.829,9.081ZM98.377,58.7a32.912,32.912,0,0,0-5.143,9.232,64.919,64.919,0,0,1-6.792-1.44A21.082,21.082,0,0,1,98.377,58.7ZM86.249,91.893a21.242,21.242,0,0,1-4.1-11.513h9.107a33.48,33.48,0,0,0,.7,5.811Zm26.234-26.235a33.038,33.038,0,0,0-4.223-6.96,21.041,21.041,0,0,1,7.632,3.551Z" transform="translate(-55.522 0)"/>
      <path id="Path_74" data-name="Path 74" d="M175.785,119.494a23.386,23.386,0,0,0-1.513-2.049,1.06,1.06,0,0,0-1.567-.075l-31.338,31.338a1.06,1.06,0,0,0,.074,1.567,23.174,23.174,0,0,0,12.516,5.22,23.746,23.746,0,0,0,4.449.02v5.4a1.06,1.06,0,0,0,1.839.719l9.507-10.3a23.325,23.325,0,0,0,6.033-31.836Zm-7.344,30.166a1.064,1.064,0,0,0-.17.149l-7.744,8.389v-3.876a1.06,1.06,0,0,0-1.21-1.049c-.321.046-.619.082-.912.111a21.54,21.54,0,0,1-4.237,0,21.048,21.048,0,0,1-10.454-4.024l29.644-29.644q.342.464.656.942A21.205,21.205,0,0,1,168.441,149.661Z" transform="translate(-108.49 -52.97)"/>
      <circle id="Ellipse_6" data-name="Ellipse 6" cx="2" cy="2" r="2" transform="translate(58.997 88)"/>
      <circle id="Ellipse_7" data-name="Ellipse 7" cx="2" cy="2" r="2" transform="translate(51.997 88)"/>
      <circle id="Ellipse_8" data-name="Ellipse 8" cx="2" cy="2" r="2" transform="translate(44.997 88)"/>
    </g>
  </g>
</svg>
