<svg xmlns="http://www.w3.org/2000/svg" width="98" height="130.369" viewBox="0 0 98 130.369">
  <g id="giovalues" transform="translate(-651.515 -1628)">
    <g id="Logo" transform="translate(-105 1676)">
      <text id="Giovany_Almeida" data-name="Giovany
Almeida" transform="translate(756.515 52.369)" fill="#40aff3" font-size="22" font-family="Poppins-ExtraBold, Poppins" font-weight="800"><tspan x="0" y="0">Giovany</tspan><tspan x="0" y="22">Almeida</tspan></text>
      <g id="filled_outline" data-name="filled outline" transform="translate(771.48 -48)">
        <path id="Path_68" data-name="Path 68" d="M140.846,71.388,95.378,116.855a32.3,32.3,0,0,1,21.683-52.7q1.592-.159,3.226-.16a32.236,32.236,0,0,1,20.559,7.388Z" transform="translate(-86.452 -62.462)" fill="#40aff3" opacity="0.8"/>
        <path id="Path_69" data-name="Path 69" d="M135.371,63.744a33.622,33.622,0,0,0-18.16-7.573,34.432,34.432,0,0,0-6.756,0,33.837,33.837,0,0,0-22.717,55.206,1.538,1.538,0,0,0,1.113.558l.073,0a1.538,1.538,0,0,0,1.087-.45L135.48,66.017a1.538,1.538,0,0,0-.108-2.273ZM108.845,88.3H99.4a45.251,45.251,0,0,1,1.907-11.578,97.651,97.651,0,0,0,10.984.8v7.33Zm-3.076,3.076-5.8,5.8a45.6,45.6,0,0,1-.568-5.8Zm5.565-32.195c.319-.026.639-.048.96-.064V74.446a94.612,94.612,0,0,1-9.972-.694,44.83,44.83,0,0,1,9.012-14.57Zm4.036,18.34q2.211-.035,4.426-.172l-4.426,4.425Zm7.781-3.527c-2.574.257-5.182.408-7.781.451V59.118c.321.016.642.038.961.064a45,45,0,0,1,8.457,13.175ZM106.662,59.92A47.752,47.752,0,0,0,99.2,73.314a94.19,94.19,0,0,1-9.855-2.089A30.587,30.587,0,0,1,106.662,59.92ZM87.515,73.911a97.134,97.134,0,0,0,10.72,2.366A48.335,48.335,0,0,0,96.327,88.3H83.117a30.582,30.582,0,0,1,4.4-14.39Zm1.552,34.17a30.819,30.819,0,0,1-5.952-16.7H96.327a48.575,48.575,0,0,0,1.011,8.431ZM127.13,70.017A47.932,47.932,0,0,0,121,59.919a30.528,30.528,0,0,1,11.073,5.152Z" transform="translate(-79.998 -56.004)" fill="#428dc5"/>
        <path id="Path_70" data-name="Path 70" d="M201.915,145.619a32.22,32.22,0,0,0-7.388-20.559L149.06,170.528a32.145,32.145,0,0,0,17.333,7.228q1.592.16,3.226.16t3.226-.16c.466-.046.928-.1,1.388-.169v9.557l13.9-15.062A32.257,32.257,0,0,0,201.915,145.619Z" transform="translate(-135.783 -111.066)" fill="#eaeae8"/>
        <circle id="Ellipse_3" data-name="Ellipse 3" cx="2.918" cy="2.918" r="2.918" transform="translate(49.627 47.021)" fill="#428dc5"/>
        <path id="Path_73" data-name="Path 73" d="M135.929,64.853a1.538,1.538,0,0,0-.557-1.113,33.622,33.622,0,0,0-18.16-7.573c-1.106-.11-2.23-.165-3.354-.166h-.049c-1.124,0-2.248.056-3.353.166a33.686,33.686,0,0,0-24.9,15.084l-.012.017h0a33.843,33.843,0,0,0,2.195,40.1,1.538,1.538,0,0,0,1.112.557l.073,0a1.538,1.538,0,0,0,1.087-.45l45.468-45.468A1.538,1.538,0,0,0,135.929,64.853ZM108.847,88.3H99.405a45.251,45.251,0,0,1,1.907-11.578,97.658,97.658,0,0,0,10.984.8v7.33Zm-25.729,0a30.582,30.582,0,0,1,4.4-14.39,97.136,97.136,0,0,0,10.72,2.366A48.336,48.336,0,0,0,96.328,88.3Zm28.218-29.119c.319-.026.639-.048.96-.064V74.442a94.61,94.61,0,0,1-9.972-.694,44.831,44.831,0,0,1,9.012-14.57Zm-5.565,32.195-5.8,5.8a45.593,45.593,0,0,1-.569-5.8Zm9.6-13.855q2.211-.035,4.426-.172l-4.426,4.425Zm7.781-3.527c-2.574.257-5.182.408-7.781.451V59.114c.321.016.642.038.961.064a45,45,0,0,1,8.457,13.175Zm-16.49-14.074A47.752,47.752,0,0,0,99.2,73.31a94.186,94.186,0,0,1-9.855-2.089,30.587,30.587,0,0,1,17.316-11.305Zm-17.6,48.161a30.82,30.82,0,0,1-5.951-16.7H96.328A48.576,48.576,0,0,0,97.34,99.8ZM127.13,70.013A47.935,47.935,0,0,0,121,59.915a30.528,30.528,0,0,1,11.073,5.152Z" transform="translate(-79.999 -56)"/>
        <path id="Path_74" data-name="Path 74" d="M191.444,120.592a33.932,33.932,0,0,0-2.2-2.973,1.538,1.538,0,0,0-2.273-.108l-45.468,45.467a1.538,1.538,0,0,0,.108,2.273,33.623,33.623,0,0,0,18.16,7.573,34.452,34.452,0,0,0,6.455.029v7.828a1.538,1.538,0,0,0,2.668,1.043l13.793-14.942a33.843,33.843,0,0,0,8.753-46.191ZM180.788,164.36a1.544,1.544,0,0,0-.247.216l-11.235,12.172v-5.623a1.538,1.538,0,0,0-1.756-1.523c-.466.067-.9.119-1.323.161a31.254,31.254,0,0,1-6.148,0,30.538,30.538,0,0,1-15.168-5.839l43.01-43.01q.5.673.952,1.366A30.767,30.767,0,0,1,180.788,164.36Z" transform="translate(-129.319 -104.604)"/>
        <circle id="Ellipse_6" data-name="Ellipse 6" cx="2.918" cy="2.918" r="2.918" transform="translate(49.627 47.021)"/>
        <circle id="Ellipse_7" data-name="Ellipse 7" cx="2.918" cy="2.918" r="2.918" transform="translate(40.29 47.021)"/>
        <circle id="Ellipse_8" data-name="Ellipse 8" cx="2.918" cy="2.918" r="2.918" transform="translate(29.786 47.021)"/>
      </g>
    </g>
  </g>
</svg>
